<svg width="180" height="60" viewBox="0 0 180 60" fill="none" xmlns="http://www.w3.org/2000/svg">
<path d="M165.666 0.000195H14.3422C13.7906 0.000195 13.2456 0.000195 12.6955 0.003195C12.235 0.006195 11.7781 0.01491 11.3132 0.022245C10.3031 0.0340977 9.29543 0.122709 8.29888 0.28731C7.30373 0.455494 6.33976 0.772569 5.43956 1.22781C4.54046 1.6869 3.71893 2.28345 3.00477 2.9958C2.28686 3.70615 1.68842 4.52722 1.23248 5.42743C0.775271 6.32586 0.458244 7.2886 0.292343 8.28242C0.124866 9.27497 0.0347448 10.279 0.0227888 11.2854C0.00882972 11.7453 0.00735559 12.2067 0 12.6667V47.3381C0.00735559 47.8038 0.00882972 48.255 0.0227888 48.7209C0.0347485 49.7273 0.12487 50.7313 0.292343 51.7238C0.457785 52.7182 0.774831 53.6815 1.23248 54.5802C1.68821 55.4775 2.28673 56.2953 3.00477 57.0017C3.71622 57.7172 4.53828 58.3142 5.43956 58.7697C6.33975 59.2262 7.30362 59.5452 8.29888 59.7159C9.2956 59.8792 10.3032 59.9679 11.3132 59.9811C11.7781 59.9913 12.235 59.9972 12.6955 59.9972C13.2456 60.0002 13.7906 60.0002 14.3422 60.0002H165.666C166.207 60.0002 166.756 60.0002 167.296 59.9972C167.755 59.9972 168.225 59.9913 168.683 59.9811C169.691 59.9686 170.697 59.8799 171.692 59.7159C172.69 59.544 173.657 59.2251 174.562 58.7697C175.462 58.3139 176.284 57.717 176.995 57.0017C177.711 56.2925 178.311 55.4754 178.772 54.5802C179.226 53.6808 179.54 52.7176 179.703 51.7238C179.871 50.7311 179.964 49.7274 179.982 48.7209C179.988 48.255 179.988 47.8038 179.988 47.3381C180 46.7931 180 46.2512 180 45.6974V14.3044C180 13.7551 180 13.2102 179.988 12.6667C179.988 12.2067 179.988 11.7453 179.982 11.2854C179.964 10.2788 179.871 9.27505 179.703 8.28236C179.54 7.28912 179.226 6.32645 178.772 5.42737C177.843 3.62299 176.371 2.15423 174.562 1.22767C173.657 0.773546 172.69 0.456556 171.692 0.287175C170.697 0.121849 169.691 0.0332066 168.683 0.022035C168.225 0.014715 167.755 0.005925 167.296 0.003C166.756 0 166.207 0 165.666 0V0.000195Z" fill="#A6A6A6"/>
<path d="M12.7028 58.6875C12.2445 58.6875 11.7973 58.6816 11.3425 58.6714C10.4006 58.6592 9.46082 58.5774 8.53096 58.4268C7.66392 58.2779 6.82399 58.0009 6.03888 57.6049C5.26096 57.2123 4.55144 56.6974 3.93749 56.08C3.31466 55.47 2.79612 54.7624 2.40243 53.9853C2.0044 53.2032 1.72894 52.3648 1.58564 51.4995C1.4309 50.5697 1.34717 49.6295 1.33519 48.687C1.32566 48.3707 1.31317 47.3174 1.31317 47.3174V12.6665C1.31317 12.6665 1.32647 11.6294 1.33527 11.3247C1.34674 10.3837 1.42998 9.44498 1.58426 8.51659C1.72782 7.64888 2.00349 6.80812 2.40174 6.02344C2.79398 5.24692 3.30964 4.53879 3.92872 3.92652C4.54711 3.30843 5.2589 2.79091 6.03814 2.39281C6.82145 1.99814 7.65979 1.7231 8.52508 1.57691C9.45799 1.42475 10.401 1.34249 11.3462 1.33082L12.7035 1.3125H167.289L168.663 1.33155C169.599 1.34265 170.534 1.42417 171.458 1.57543C172.332 1.72346 173.179 2.00042 173.971 2.39721C175.533 3.19948 176.803 4.46874 177.604 6.02711C177.996 6.80637 178.267 7.64026 178.409 8.50048C178.565 9.43649 178.653 10.3826 178.671 11.3313C178.675 11.7561 178.675 12.2124 178.675 12.6665C178.687 13.229 178.687 13.7644 178.687 14.3042V45.6972C178.687 46.2421 178.687 46.7739 178.675 47.31C178.675 47.7978 178.675 48.2446 178.669 48.7046C178.652 49.6363 178.566 50.5655 178.412 51.4848C178.272 52.3564 177.998 53.2013 177.6 53.9898C177.203 54.7584 176.688 55.4599 176.072 56.0683C175.458 56.689 174.747 57.2069 173.967 57.6021C173.177 58.0011 172.331 58.2791 171.458 58.4268C170.528 58.5782 169.588 58.66 168.646 58.6714C168.206 58.6816 167.744 58.6875 167.296 58.6875L165.666 58.6905L12.7028 58.6875Z" fill="black"/>
<path d="M37.2576 30.451C37.2738 29.199 37.6073 27.9714 38.227 26.8825C38.8468 25.7936 39.7327 24.8787 40.8024 24.2229C40.1229 23.2552 39.2264 22.4587 38.1843 21.8969C37.1421 21.3351 35.9829 21.0233 34.7988 20.9864C32.2729 20.722 29.8241 22.4936 28.5369 22.4936C27.2249 22.4936 25.2431 21.0126 23.109 21.0564C21.7286 21.1009 20.3833 21.5012 19.2042 22.2182C18.0251 22.9353 17.0524 23.9448 16.3808 25.1482C13.4716 30.1708 15.6416 37.5524 18.4283 41.6123C19.8226 43.6004 21.4521 45.821 23.5842 45.7423C25.6706 45.656 26.4499 44.4156 28.9684 44.4156C31.4635 44.4156 32.1946 45.7423 34.37 45.6922C36.6088 45.656 38.0194 43.6953 39.3647 41.6885C40.3665 40.272 41.1374 38.7064 41.6488 37.0497C40.3481 36.5011 39.2381 35.5829 38.4572 34.4094C37.6763 33.236 37.2591 31.8593 37.2576 30.451Z" fill="white"/>
<path d="M33.1486 18.3165C34.3693 16.8552 34.9707 14.9769 34.8251 13.0806C32.9601 13.2759 31.2374 14.1647 30.0002 15.57C29.3953 16.2565 28.932 17.0551 28.6368 17.9203C28.3417 18.7854 28.2203 19.7001 28.2799 20.6121C29.2127 20.6216 30.1355 20.42 30.9789 20.0224C31.8222 19.6248 32.5641 19.0415 33.1486 18.3165Z" fill="white"/>
<path d="M63.6315 40.7095H56.5115L54.8017 45.7442H51.7859L58.5299 27.1172H61.6631L68.4071 45.7442H65.3399L63.6315 40.7095ZM57.2489 38.3863H62.8927L60.1105 30.2154H60.0327L57.2489 38.3863Z" fill="white"/>
<path d="M82.9718 38.9547C82.9718 43.1749 80.7067 45.8863 77.2884 45.8863C76.4225 45.9315 75.5614 45.7326 74.8035 45.3124C74.0457 44.8921 73.4219 44.2676 73.0035 43.5103H72.9388V50.2369H70.1434V32.1636H72.8492V34.4224H72.9006C73.3383 33.6687 73.9727 33.0474 74.7363 32.6247C75.4998 32.2019 76.3641 31.9935 77.237 32.0215C80.6934 32.0216 82.9718 34.7462 82.9718 38.9547ZM80.0985 38.9547C80.0985 36.2052 78.6736 34.3975 76.4996 34.3975C74.3637 34.3975 72.9271 36.2432 72.9271 38.9547C72.9271 41.691 74.3637 43.5235 76.4996 43.5235C78.6736 43.5235 80.0985 41.7291 80.0985 38.9547Z" fill="white"/>
<path d="M97.9611 38.9547C97.9611 43.1749 95.6959 45.8863 92.2777 45.8863C91.4118 45.9315 90.5506 45.7325 89.7928 45.3123C89.035 44.8921 88.4112 44.2676 87.9927 43.5103H87.9281V50.2369H85.1326V32.1636H87.8384V34.4224H87.8898C88.3275 33.6687 88.9619 33.0474 89.7255 32.6247C90.489 32.2019 91.3533 31.9935 92.2262 32.0215C95.6827 32.0215 97.9611 34.7461 97.9611 38.9547ZM95.0878 38.9547C95.0878 36.2052 93.6629 34.3975 91.4888 34.3975C89.353 34.3975 87.9163 36.2432 87.9163 38.9547C87.9163 41.691 89.353 43.5235 91.4888 43.5235C93.6629 43.5235 95.0878 41.7291 95.0878 38.9547H95.0878Z" fill="white"/>
<path d="M107.868 40.5543C108.075 42.4015 109.874 43.6143 112.333 43.6143C114.69 43.6143 116.385 42.4014 116.385 40.7359C116.385 39.29 115.362 38.4243 112.941 37.8311L110.521 37.2495C107.091 36.4233 105.498 34.8237 105.498 32.228C105.498 29.0142 108.307 26.8066 112.295 26.8066C116.242 26.8066 118.948 29.0142 119.039 32.228H116.217C116.048 30.3691 114.507 29.2471 112.255 29.2471C110.004 29.2471 108.463 30.3823 108.463 32.0347C108.463 33.3516 109.447 34.1265 111.854 34.7197L113.912 35.2236C117.745 36.1274 119.337 37.6626 119.337 40.3872C119.337 43.872 116.554 46.0546 112.126 46.0546C107.984 46.0546 105.187 43.9233 105.006 40.5541L107.868 40.5543Z" fill="white"/>
<path d="M125.37 28.9497V32.1636H127.96V34.3711H125.37V41.8579C125.37 43.021 125.889 43.563 127.027 43.563C127.335 43.5576 127.642 43.5361 127.947 43.4985V45.6928C127.435 45.7882 126.915 45.8314 126.394 45.8217C123.637 45.8217 122.562 44.789 122.562 42.1552V34.3711H120.581V32.1636H122.562V28.9497H125.37Z" fill="white"/>
<path d="M129.46 38.9546C129.46 34.6816 131.984 31.9966 135.919 31.9966C139.867 31.9966 142.379 34.6816 142.379 38.9546C142.379 43.2393 139.881 45.9126 135.919 45.9126C131.959 45.9126 129.46 43.2392 129.46 38.9546ZM139.531 38.9546C139.531 36.0234 138.184 34.2935 135.919 34.2935C133.654 34.2935 132.308 36.0366 132.308 38.9546C132.308 41.8975 133.654 43.6143 135.919 43.6143C138.184 43.6143 139.531 41.8975 139.531 38.9546H139.531Z" fill="white"/>
<path d="M144.684 32.1635H147.35V34.475H147.415C147.595 33.7531 148.019 33.1151 148.616 32.6683C149.213 32.2214 149.945 31.993 150.691 32.0214C151.013 32.0203 151.334 32.0552 151.649 32.1254V34.7328C151.242 34.6089 150.818 34.552 150.393 34.5644C149.986 34.548 149.582 34.6194 149.206 34.7737C148.83 34.928 148.492 35.1616 148.215 35.4585C147.939 35.7553 147.73 36.1083 147.603 36.4933C147.476 36.8783 147.434 37.2862 147.48 37.6889V45.7441H144.684L144.684 32.1635Z" fill="white"/>
<path d="M164.537 41.7554C164.161 44.2207 161.753 45.9126 158.673 45.9126C154.711 45.9126 152.252 43.2656 152.252 39.019C152.252 34.7593 154.724 31.9966 158.555 31.9966C162.323 31.9966 164.693 34.5776 164.693 38.6953V39.6504H155.074V39.8188C155.03 40.3186 155.092 40.8221 155.258 41.2959C155.424 41.7697 155.689 42.2028 156.035 42.5667C156.382 42.9305 156.802 43.2166 157.268 43.4061C157.734 43.5955 158.235 43.684 158.738 43.6655C159.398 43.7272 160.061 43.5747 160.628 43.2305C161.194 42.8863 161.635 42.369 161.883 41.7554L164.537 41.7554ZM155.087 37.7021H161.896C161.921 37.2528 161.853 36.803 161.695 36.3812C161.538 35.9594 161.295 35.5746 160.981 35.251C160.667 34.9273 160.29 34.6718 159.872 34.5005C159.455 34.3291 159.007 34.2457 158.555 34.2554C158.1 34.2527 157.649 34.3399 157.228 34.512C156.807 34.6841 156.424 34.9377 156.101 35.2582C155.779 35.5786 155.523 35.9596 155.349 36.379C155.175 36.7985 155.086 37.2482 155.087 37.7022V37.7021Z" fill="white"/>
</svg>
